<svg width="14" height="13" viewBox="0 0 14 13" fill="none" xmlns="http://www.w3.org/2000/svg">
<path d="M1.63037 1H12.3698C12.4667 1 12.5615 1.02814 12.6426 1.08099C12.7238 1.13384 12.7879 1.20914 12.8271 1.29772C12.8663 1.38631 12.8789 1.48437 12.8634 1.57999C12.8479 1.6756 12.8049 1.76466 12.7398 1.83634L8.63013 6.35697C8.54646 6.449 8.5001 6.56892 8.5001 6.6933V10.2324C8.5001 10.3147 8.47977 10.3958 8.44093 10.4683C8.40209 10.5409 8.34594 10.6028 8.27745 10.6484L6.27745 11.9818C6.20215 12.032 6.11463 12.0608 6.02424 12.0652C5.93384 12.0695 5.84396 12.0493 5.76417 12.0066C5.68438 11.9639 5.61767 11.9003 5.57116 11.8227C5.52466 11.745 5.5001 11.6562 5.5001 11.5657V6.6933C5.5001 6.56892 5.45373 6.449 5.37007 6.35697L1.2604 1.83634C1.19524 1.76466 1.15231 1.6756 1.13681 1.57999C1.12131 1.48437 1.13393 1.38631 1.17311 1.29772C1.2123 1.20914 1.27638 1.13384 1.35755 1.08099C1.43873 1.02814 1.53351 1 1.63037 1V1Z" stroke="white" stroke-linecap="round" stroke-linejoin="round"/>
</svg>
